<?xml version="1.0" standalone="no"?><!DOCTYPE svg PUBLIC "-//W3C//DTD SVG 1.1//EN" "http://www.w3.org/Graphics/SVG/1.1/DTD/svg11.dtd"><svg t="1725862716562" class="icon" viewBox="0 0 1024 1024" version="1.1" xmlns="http://www.w3.org/2000/svg" p-id="5732" xmlns:xlink="http://www.w3.org/1999/xlink" width="200" height="200"><path d="M651.636364 488.727273H372.363636a23.272727 23.272727 0 0 0 0 46.545454h279.272728a23.272727 23.272727 0 0 0 0-46.545454z" p-id="5733" fill="#d81e06"></path><path d="M509.207273 139.636364A365.149091 365.149091 0 0 0 139.636364 509.207273 380.509091 380.509091 0 0 0 514.792727 884.363636h3.258182A365.614545 365.614545 0 0 0 884.363636 514.792727 380.509091 380.509091 0 0 0 509.207273 139.636364zM744.727273 744.727273a315.345455 315.345455 0 0 1-229.236364 93.090909A333.730909 333.730909 0 0 1 186.181818 508.741818 318.603636 318.603636 0 0 1 505.949091 186.181818h2.792727A333.730909 333.730909 0 0 1 837.818182 515.258182 317.905455 317.905455 0 0 1 744.727273 744.727273z" p-id="5734" fill="#d81e06"></path></svg>