<?xml version="1.0" standalone="no"?><!DOCTYPE svg PUBLIC "-//W3C//DTD SVG 1.1//EN"
        "http://www.w3.org/Graphics/SVG/1.1/DTD/svg11.dtd">
<svg t="1727165016838" class="icon" viewBox="0 0 1024 1024" version="1.1" xmlns="http://www.w3.org/2000/svg" p-id="7864"
     width="200" height="200">
    <path d="M896 722.944a25.6 25.6 0 0 1 51.2 0V819.2a76.8 76.8 0 0 1-76.8 76.8H153.6A76.8 76.8 0 0 1 76.8 819.2V256A76.8 76.8 0 0 1 153.6 179.2h716.8A76.8 76.8 0 0 1 947.2 256v288.8704a25.6 25.6 0 0 1-51.2 0V256a25.6 25.6 0 0 0-25.6-25.6H153.6a25.6 25.6 0 0 0-25.6 25.6v563.2a25.6 25.6 0 0 0 25.6 25.6h716.8a25.6 25.6 0 0 0 25.6-25.6v-96.256z m-438.784-43.2128l-93.9008-77.1584-138.1888 180.9408a25.6 25.6 0 1 1-40.6528-31.0272l141.4144-185.2416a46.08 46.08 0 0 1 65.8432-7.6288l94.208 77.4656 153.9072-170.2912a46.08 46.08 0 0 1 76.1344 11.8784l126.5152 278.7328a25.6 25.6 0 0 1-46.592 21.1968L672.6144 506.88l-151.9104 168.0896a46.08 46.08 0 0 1-63.488 4.7104zM358.4 486.4a76.8 76.8 0 1 1 0-153.6 76.8 76.8 0 0 1 0 153.6z m0-51.2a25.6 25.6 0 1 0 0-51.2 25.6 25.6 0 0 0 0 51.2z"
          p-id="7865"></path>
</svg>