<?xml version="1.0" standalone="no"?><!DOCTYPE svg PUBLIC "-//W3C//DTD SVG 1.1//EN"
        "http://www.w3.org/Graphics/SVG/1.1/DTD/svg11.dtd">
<svg t="1726644822189" class="icon" viewBox="0 0 1024 1024" version="1.1" xmlns="http://www.w3.org/2000/svg" p-id="7903"
     width="200" height="200">
    <path d="M263.765333 629.461333l120.682667 120.682667 286.613333-286.613333-120.682666-120.682667-286.613334 286.613333zM213.333333 699.733333v100.864h100.864L213.333333 699.712z m397.376-417.194666l120.682667 120.661333 60.352-60.330667-120.682667-120.682666-60.352 60.352z m105.6-135.765334l150.848 150.826667a64 64 0 0 1 0 90.517333L406.848 848.426667a128 128 0 0 1-90.517333 37.482666H170.666667a42.666667 42.666667 0 0 1-42.666667-42.666666v-145.685334a128 128 0 0 1 37.482667-90.496L625.813333 146.752a64 64 0 0 1 90.496 0z"
          p-id="7904"></path>
</svg>