<?xml version="1.0" standalone="no"?><!DOCTYPE svg PUBLIC "-//W3C//DTD SVG 1.1//EN" "http://www.w3.org/Graphics/SVG/1.1/DTD/svg11.dtd"><svg t="1726645302751" class="icon" viewBox="0 0 1024 1024" version="1.1" xmlns="http://www.w3.org/2000/svg" p-id="8977" xmlns:xlink="http://www.w3.org/1999/xlink" width="200" height="200"><path d="M832.161 351.79c-17.673 0-32 14.327-32 32v479.85H224.037V223.784h414.605c17.673 0 32-14.327 32-32 0-17.673-14.327-32-32-32H192.037c-17.673 0-32 14.327-32 32V895.64c0 17.673 14.327 32 32 32h640.124c17.673 0 32-14.327 32-32V383.79c0-17.673-14.327-32-32-32z" fill="#2672ff" p-id="8978"></path><path d="M485.612 534.222c6.249 6.248 14.438 9.372 22.627 9.372s16.379-3.124 22.627-9.372l321.407-321.406c12.496-12.497 12.496-32.758 0-45.255-12.498-12.497-32.759-12.497-45.255 0L485.612 488.967c-12.497 12.496-12.497 32.758 0 45.255zM736 627c0-17.673-14.327-32-32-32H322c-17.673 0-32 14.327-32 32s14.327 32 32 32h382c17.673 0 32-14.327 32-32zM322 725c-17.673 0-32 14.327-32 32s14.327 32 32 32h251c17.673 0 32-14.327 32-32s-14.327-32-32-32H322z" fill="#2672ff" p-id="8979"></path></svg>