<?xml version="1.0" standalone="no"?><!DOCTYPE svg PUBLIC "-//W3C//DTD SVG 1.1//EN" "http://www.w3.org/Graphics/SVG/1.1/DTD/svg11.dtd"><svg t="1725956812358" class="icon" viewBox="0 0 1024 1024" version="1.1" xmlns="http://www.w3.org/2000/svg" p-id="5371" xmlns:xlink="http://www.w3.org/1999/xlink" width="200" height="200"><path d="M839.68 899.072c-13.312 0-26.624-5.12-36.864-15.36l-655.36-675.84c-19.456-20.48-18.944-52.736 1.024-72.192 20.48-19.456 52.736-18.944 72.192 1.024l655.36 675.84c19.456 20.48 18.944 52.736-1.024 72.192-9.728 9.728-22.528 14.336-35.328 14.336z" fill="#cdcdcd" p-id="5372"></path><path d="M174.08 888.832c-13.312 0-26.624-5.12-36.864-15.36-19.456-20.48-18.944-52.736 1.024-72.192l675.84-655.36c20.48-19.456 52.736-18.944 72.192 1.024 19.456 20.48 18.944 52.736-1.024 72.192l-675.84 655.36c-9.728 9.728-22.528 14.336-35.328 14.336z" fill="#cdcdcd" p-id="5373"></path></svg>