<?xml version="1.0" standalone="no"?><!DOCTYPE svg PUBLIC "-//W3C//DTD SVG 1.1//EN" "http://www.w3.org/Graphics/SVG/1.1/DTD/svg11.dtd"><svg t="1727664770500" class="icon" viewBox="0 0 1024 1024" version="1.1" xmlns="http://www.w3.org/2000/svg" p-id="4269" width="16" height="16" xmlns:xlink="http://www.w3.org/1999/xlink"><path d="M559 113.8v64.8c0 37.1 22.2 70.3 56.7 84.5l0.3 0.1h0.1c11.3 4.7 23.2 7.1 35.4 7.1 24.4 0 47.4-9.5 64.6-26.7l45.8-45.8 65.1 65.1-45.8 45.8c-26.3 26.3-34 65.5-19.7 100l0.2 0.4c14.2 34.4 47.4 56.7 84.5 56.7H911v92h-64.8c-37.1 0-70.3 22.2-84.5 56.7l-0.1 0.3v0.1c-14.3 34.5-6.6 73.7 19.7 100l45.8 45.8-65.1 65.1-45.9-45.8c-17.2-17.2-40.2-26.7-64.6-26.7-12.2 0-24.1 2.4-35.4 7.1l-0.4 0.2C581.3 774.7 559 807.9 559 845v64.8h-92V845c0-37.1-22.2-70.3-56.7-84.5l-0.4-0.2c-11.3-4.7-23.2-7.1-35.4-7.1-24.4 0-47.4 9.5-64.6 26.7l-45.8 45.8-65.1-65 45.8-45.8c26.3-26.3 34-65.5 19.7-99.9v-0.1l-0.2-0.4c-14.2-34.4-47.4-56.7-84.5-56.7H115v-92h64.8c37.1 0 70.3-22.2 84.5-56.7l0.2-0.4c14.3-34.5 6.6-73.7-19.7-100L199 262.9l65.1-65.1 45.8 45.8c17.2 17.2 40.2 26.7 64.6 26.7 12.2 0 24.1-2.4 35.3-7.1l0.1-0.1 0.3-0.1c34.4-14.2 56.7-47.4 56.7-84.5v-64.8H559m50-49.9H417v114.8c0 16.8-10.2 31.9-25.8 38.3-0.2 0.1-0.3 0.1-0.5 0.2-5.2 2.2-10.7 3.2-16.2 3.2-10.8 0-21.3-4.2-29.2-12.1L264.1 127 128.3 262.9l81.2 81.2c11.9 11.9 15.3 29.8 8.8 45.4-0.1 0.2-0.1 0.3-0.2 0.5-6.4 15.6-21.5 25.8-38.3 25.8H65v192h114.8c16.8 0 31.9 10.2 38.3 25.8 0.1 0.2 0.1 0.3 0.2 0.5 6.5 15.6 3.1 33.5-8.8 45.4l-81.2 81.2 135.8 135.8 81.2-81.2c7.9-7.9 18.5-12.1 29.2-12.1 5.4 0 10.9 1.1 16.2 3.2 0.2 0.1 0.3 0.1 0.5 0.2 15.6 6.4 25.8 21.5 25.8 38.3v114.8h192V845c0-16.8 10.2-31.9 25.8-38.3 0.2-0.1 0.3-0.1 0.5-0.2 5.2-2.2 10.7-3.2 16.2-3.2 10.8 0 21.3 4.2 29.2 12.1l81.2 81.2 135.8-135.8-81.2-81.2c-11.9-11.9-15.3-29.8-8.8-45.4 0.1-0.2 0.1-0.3 0.2-0.5 6.4-15.6 21.5-25.8 38.3-25.8H961v-192H846.2c-16.8 0-31.9-10.2-38.3-25.8-0.1-0.2-0.1-0.3-0.2-0.5-6.5-15.6-3.1-33.5 8.8-45.4l81.2-81.2-135.8-135.9-81.2 81.2c-7.9 7.9-18.5 12.1-29.2 12.1-5.4 0-10.9-1.1-16.2-3.2-0.2-0.1-0.3-0.1-0.5-0.2-15.6-6.4-25.8-21.5-25.8-38.3V63.8z" fill="#999999" p-id="4270"></path><path d="M513 370.2c37.8 0 73.4 14.7 100.1 41.5 26.7 26.7 41.5 62.3 41.5 100.1s-14.7 73.4-41.5 100.1-62.3 41.5-100.1 41.5-73.4-14.7-100.1-41.5c-26.7-26.7-41.5-62.3-41.5-100.1s14.7-73.4 41.5-100.1c26.7-26.8 62.3-41.5 100.1-41.5m0-50c-105.8 0-191.6 85.8-191.6 191.6S407.2 703.4 513 703.4s191.6-85.8 191.6-191.6S618.8 320.2 513 320.2z" fill="#999999" p-id="4271"></path></svg>